<?xml version="1.0" encoding="utf-8"?>
<!-- Generator: Adobe Illustrator 28.1.0, SVG Export Plug-In . SVG Version: 6.00 Build 0)  -->
<svg version="1.1" id="Layer_1" xmlns="http://www.w3.org/2000/svg" xmlns:xlink="http://www.w3.org/1999/xlink" x="0px" y="0px"
	 viewBox="0 0 413.68 144.51" style="enable-background:new 0 0 413.68 144.51;" xml:space="preserve">
<style type="text/css">

	.st0{fill:#FFFFFF;}
	.st1{fill: #FFFFFF;}
</style>
<g>
	<g>
		<g>
			<path class="st0" d="M171.09,98.38l2.84,12.05h0.04l3.25-12.05h2.09l3.21,12.05h0.04l2.94-12.05h1.93l-3.88,14.49h-2.01
				l-3.31-12.18h-0.04l-3.35,12.18h-2.01l-3.71-14.49H171.09z"/>
			<path class="st0" d="M200.46,98.03c2.14,0,3.83,0.73,5.07,2.17c1.25,1.45,1.87,3.26,1.87,5.42c0,2.23-0.64,4.06-1.91,5.47
				c-1.27,1.41-2.95,2.12-5.03,2.12c-2.12,0-3.81-0.72-5.06-2.16c-1.25-1.44-1.88-3.25-1.88-5.43s0.63-3.99,1.89-5.44
				C196.66,98.75,198.35,98.03,200.46,98.03z M195.44,105.62c0,1.77,0.46,3.21,1.37,4.31c0.91,1.1,2.13,1.65,3.64,1.65
				c1.56,0,2.78-0.55,3.67-1.66c0.89-1.11,1.34-2.54,1.34-4.3c0-1.72-0.44-3.14-1.32-4.26c-0.89-1.14-2.13-1.7-3.71-1.7
				c-1.56,0-2.78,0.57-3.67,1.7C195.88,102.51,195.44,103.93,195.44,105.62z"/>
			<path class="st0" d="M220.95,98.03c2.14,0,3.83,0.73,5.07,2.17c1.25,1.45,1.87,3.26,1.87,5.42c0,2.23-0.64,4.06-1.91,5.47
				c-1.27,1.41-2.95,2.12-5.03,2.12c-2.12,0-3.81-0.72-5.06-2.16c-1.25-1.44-1.88-3.25-1.88-5.43s0.63-3.99,1.89-5.44
				C217.16,98.75,218.84,98.03,220.95,98.03z M215.94,105.62c0,1.77,0.46,3.21,1.37,4.31c0.91,1.1,2.13,1.65,3.64,1.65
				c1.56,0,2.78-0.55,3.67-1.66c0.89-1.11,1.34-2.54,1.34-4.3c0-1.72-0.44-3.14-1.32-4.26c-0.89-1.14-2.13-1.7-3.71-1.7
				c-1.56,0-2.78,0.57-3.67,1.7C216.38,102.51,215.94,103.93,215.94,105.62z"/>
			<path class="st0" d="M240.42,98.38c2.2,0,3.9,0.59,5.07,1.76c1.18,1.17,1.77,2.89,1.77,5.14c0,2.53-0.58,4.43-1.75,5.69
				c-1.16,1.27-2.86,1.9-5.09,1.9h-5.09V98.38H240.42z M240.52,111.25c1.49,0,2.66-0.48,3.52-1.45c0.86-0.97,1.29-2.38,1.29-4.25
				c0-1.89-0.39-3.29-1.18-4.19c-0.78-0.9-1.97-1.35-3.55-1.35h-3.35v11.24H240.52z"/>
			<path class="st0" d="M268.08,98.38l4.57,12.18l4.59-12.18h2.64v14.49h-1.83v-12.05H278l-4.53,12.05h-1.64l-4.53-12.05h-0.04
				v12.05h-1.83V98.38H268.08z"/>
			<path class="st0" d="M294.21,98.38l5.66,14.49h-2.13l-1.58-4.36h-6.13l-1.62,4.36h-1.99l5.66-14.49H294.21z M293.1,100.13
				l-2.45,6.76h4.91l-2.41-6.76H293.1z"/>
			<path class="st0" d="M314.83,98.38V100H310v12.87h-1.93V100h-4.83v-1.62H314.83z"/>
			<path class="st0" d="M331.51,98.38V100h-8.08v4.61h7.53v1.62h-7.53v5.01h8.14v1.62h-10.07V98.38H331.51z"/>
			<path class="st0" d="M345.88,98.38c1.28,0,2.33,0.34,3.12,1.02c0.8,0.68,1.2,1.6,1.2,2.78c0,1.96-0.84,3.19-2.52,3.67v0.04
				c0.74,0.15,1.28,0.5,1.62,1.05s0.54,1.46,0.59,2.75c0.05,1.5,0.32,2.56,0.81,3.19h-2.15c-0.15-0.2-0.26-0.57-0.35-1.12
				l-0.08-1.58c-0.03-0.76-0.19-1.52-0.49-2.29c-0.31-0.78-0.97-1.18-1.97-1.2h-4.77v6.19h-1.93V98.38H345.88z M345.03,105.06
				c2.16,0,3.25-0.86,3.25-2.58c0-0.78-0.22-1.39-0.66-1.83s-1.05-0.65-1.84-0.65h-4.87v5.05H345.03z"/>
			<path class="st0" d="M359.97,98.38v14.49h-1.93V98.38H359.97z"/>
			<path class="st0" d="M374.35,98.38l5.66,14.49h-2.13l-1.58-4.36h-6.13l-1.62,4.36h-1.99l5.66-14.49H374.35z M373.24,100.13
				l-2.45,6.76h4.91l-2.41-6.76H373.24z"/>
			<path class="st0" d="M388.44,98.38v12.87h7.67v1.62h-9.6V98.38H388.44z"/>
			<path class="st0" d="M407.74,98.03c1.62,0,2.92,0.4,3.88,1.21c0.96,0.8,1.45,1.93,1.46,3.38h-1.83
				c-0.22-1.98-1.41-2.96-3.59-2.96c-1.04,0-1.84,0.22-2.4,0.65s-0.84,1.04-0.84,1.83c0,0.53,0.24,0.99,0.73,1.4
				c0.47,0.35,1.78,0.74,3.92,1.18c1.58,0.33,2.75,0.82,3.5,1.48c0.75,0.66,1.13,1.56,1.13,2.7c0,1.35-0.55,2.41-1.66,3.16
				c-1.09,0.77-2.43,1.16-4,1.16c-1.79,0-3.23-0.45-4.32-1.34c-1.1-0.89-1.65-2.15-1.66-3.78h1.83c0.01,1.1,0.41,1.95,1.18,2.57
				c0.77,0.62,1.79,0.92,3.04,0.92c1.18,0,2.08-0.23,2.72-0.68c0.64-0.45,0.95-1.1,0.95-1.96c0-0.7-0.3-1.26-0.89-1.67
				c-0.6-0.41-1.66-0.76-3.19-1.05c-2.07-0.41-3.45-0.91-4.14-1.5c-0.7-0.62-1.06-1.44-1.06-2.46c0-1.31,0.49-2.35,1.47-3.1
				C404.93,98.41,406.19,98.03,407.74,98.03z"/>
		</g>
		<g>
			<path class="st1" d="M193.7,70.16h0.16l13.09-38.86h13.17l-19.27,55.27h-14.39L167.6,31.3h13.17L193.7,70.16z"/>
			<path class="st1" d="M279.79,86.57h-13.25l-4.39-12.31h-21.71l-4.55,12.31h-12.93L245,31.3h13.09L279.79,86.57z M243.78,65.21
				h15.04l-7.32-20.28h-0.16L243.78,65.21z"/>
			<path class="st1" d="M329.1,33.31c2.57,1.34,4.57,3.17,5.98,5.5c1.41,2.32,2.11,4.9,2.11,7.74c0,6.92-3.06,11.53-9.19,13.86v0.16
				c2.49,0.67,4.35,1.88,5.57,3.64c1.22,1.76,2.01,3.58,2.36,5.46c0.35,1.89,0.58,4.14,0.69,6.77c0.11,2.69,0.34,4.81,0.69,6.39
				s0.88,2.82,1.58,3.75h-12.76c-0.43-1.03-0.76-2.28-0.98-3.75c-0.22-1.47-0.43-3.42-0.65-5.85c-0.22-2.89-0.61-5.17-1.18-6.85
				c-0.57-1.68-1.53-2.95-2.88-3.83c-1.36-0.88-3.33-1.32-5.93-1.32h-12.84v21.6H288.9V31.3h31.3
				C323.55,31.3,326.52,31.97,329.1,33.31z M322.19,54.45c1.49-1.24,2.24-3.25,2.24-6.04c0-2.68-0.75-4.63-2.24-5.85
				c-1.49-1.21-3.67-1.82-6.54-1.82h-13.98V56.3h14.06C318.54,56.3,320.7,55.68,322.19,54.45z"/>
			<path class="st1" d="M385.64,69.23c0,6.09-1.61,10.72-4.84,13.89c-3.22,3.17-8.01,4.76-14.35,4.76c-3.9,0-7.3-0.7-10.2-2.09
				c-2.9-1.39-5.14-3.37-6.71-5.92c-1.57-2.55-2.36-5.53-2.36-8.94v-4.96h11.54v2.71c0,3.2,0.61,5.5,1.83,6.89
				c1.22,1.39,3.08,2.09,5.57,2.09c1.95,0,3.43-0.4,4.43-1.2c1-0.8,1.64-1.79,1.91-2.98c0.27-1.19,0.41-2.66,0.41-4.41V31.3h12.76
				V69.23z"/>
			<path class="st1" d="M413.68,86.57h-12.76V31.3h12.76V86.57z"/>
		</g>
		
	</g>
	<g id="XMLID_00000178910468487871676890000007459455033921173686_">
		<g id="XMLID_00000178172276606567930480000006209909025108513982_">
			<path id="XMLID_00000061440528794955088430000001261717631393691813_" class="st1" d="M106.69,28.15
				c0.76,1.91,1.58,3.87,2.44,5.87c-0.31-1.96-0.59-3.94-0.81-5.96c-0.93-8.63-5.95-14.47-14.11-16.43
				c-1.9-0.46-3.97-0.69-6.17-0.69c-0.4,0-0.82,0.01-1.23,0.03C95.79,12.66,103.01,18.86,106.69,28.15z"/>
			<path id="XMLID_00000058574603075277794590000001726187313418981021_" class="st1" d="M76.92,21.19c9.46,1.02,17.17,6.7,21.7,16
				c9.68,19.85,19.69,40.38,0.92,55.27c-3.13,2.48-25.6,16.64-47.13,22.44c22.61-1.82,49.08-15.09,54.78-19.62
				c14.28-11.33,5.16-32.15-3.65-52.28c-1.78-4.06-3.45-7.89-4.95-11.65c-2.68-6.77-7.69-11.02-14.1-11.96
				c-3.85-0.57-7.97,0.02-12.2,1.67C73.85,20.99,75.4,21.03,76.92,21.19z"/>
			<path id="XMLID_00000037653887184755827130000000131930495306686615_" class="st1" d="M10.92,73.71
				c3.57-11.96,10.89-21.61,16.74-30.57c19.81-30.33,44.7-41.98,62.8-40.82C84.65,0.81,78.55,0,72.26,0C32.35,0,0,32.35,0,72.26
				c0,13.09,3.5,25.35,9.58,35.94c-0.35-1.84-0.6-3.83-0.74-6C8.31,93.89,8.63,81.4,10.92,73.71z"/>
			<path id="XMLID_00000083053006933718362920000002644172951275644053_" class="st1" d="M47.35,123.79c-5.05,0-9.9-0.59-14.33-1.94
				c-1.71-0.52-3.32-1.16-4.85-1.88c1.87,1.77,4.04,3.17,6.51,4.18c3.46,1.4,7.46,2.03,11.78,2.03c9.8,0,21.28-3.24,32.04-7.98
				C68.43,121.44,57.48,123.79,47.35,123.79z"/>
			<path id="XMLID_00000056426167342022923010000012538764637152792731_" class="st1" d="M24.7,103.12
				c2.63,2.21,6.15,2.57,9.21,1.94c-0.86-0.15-1.49-0.37-1.94-0.52c-2.31-0.8-6.24-3.12-6.67-9.59c-0.29-4.42,3.1-11.27,3.25-11.56
				c3.62-7.24,7.59-13.34,13.25-20.38C53.26,48.78,63.8,43.71,73.12,47.92c3.92,1.77,8.21,4.66,11.6,8.18
				c-0.88-1.93-2.01-3.99-3.4-6.2c-2.67-4.26-5.8-6.68-9.57-7.4c-0.81-0.15-1.66-0.21-2.54-0.23c-6.67-0.13-13.02,1.85-22.67,10.17
				c-7.44,6.41-17.21,19.3-19.84,23.8c-2.06,3.53-3.64,7.34-4.79,11.28C20.38,92.77,20.42,99.53,24.7,103.12z"/>
			<path id="XMLID_00000120548470274961429370000000917450434747905964_" class="st1" d="M117.65,16.05
				c0.68,1.62,1.16,3.44,1.39,5.54c0.88,8.15,0.7,21.5,2.52,29.05c4.91,20.39,9.56,39.65-8.73,56.25
				c-12.29,11.15-41.73,28.03-66.17,28.04c-4.95,0-9.68-0.7-14.03-2.27c11.38,7.48,25,11.85,39.64,11.85
				c39.91,0,72.26-32.35,72.26-72.26C144.51,49.55,134.03,29.3,117.65,16.05z"/>
			<path id="XMLID_00000046313292944712065190000003607634759684384427_" class="st1" d="M73.38,33.95
				c6.19,1.17,11.35,4.99,15.32,11.33c6.08,9.7,11.72,22.54,1.3,35.89C86.06,86.2,74.25,95.2,62.53,102.1
				c-0.27,0.16-0.54,0.31-0.81,0.47c14.48-5.63,28.2-13.59,32.4-16.92c11.98-9.51,7.97-21.46-3.33-44.63
				c-3.27-6.7-8.25-10.45-14.81-11.16c-0.73-0.08-1.48-0.12-2.24-0.12c-6.93,0-14.74,3.28-21.96,9.01
				C59.97,34.34,67.1,32.76,73.38,33.95z"/>
			<path id="XMLID_00000073684912583502497040000009990621175568113809_" class="st1" d="M70.06,57.65
				c0.95-0.12,1.88-0.12,2.77-0.03c-1.11-0.8-1.93-1.35-3.29-1.76c-7.24-2.17-16.08,6.56-20.94,12.6
				c-5.26,6.53-8.92,12.15-12.25,18.81c-1.46,2.93-0.91,4.48-0.73,5.01c0.29,0.84,1.57,2.06,1.82,2.15c0.9,0.33,7.54,4.4,20.59-6.91
				c-7.49,1.8-14.89-0.28-8.77-11.21C56.09,64.08,63.13,58.5,70.06,57.65z"/>
		</g>
	</g>
</g>
</svg>
